<?xml version="1.0" encoding="utf-8"?>
<!-- Generator: Adobe Illustrator 22.0.1, SVG Export Plug-In . SVG Version: 6.00 Build 0)  -->
<svg version="1.1" id="Laag_1" xmlns="http://www.w3.org/2000/svg" xmlns:xlink="http://www.w3.org/1999/xlink" x="0px" y="0px"
	 viewBox="0 0 595.3 841.9" style="enable-background:new 0 0 595.3 841.9;" xml:space="preserve">
<style type="text/css">
	.st0{fill:#010202;stroke:#F5CF00;stroke-width:7;stroke-miterlimit:10;}
	.st1{fill:#010202;}
	.st2{fill:#F5CF00;}
</style>
<path class="st0" d="M526.1,498.2H74.6c-20.1,0-36.6-16.5-36.6-36.6V150.7c0-20.1,16.5-36.6,36.6-36.6h451.6
	c20.1,0,36.6,16.5,36.6,36.6v310.9C562.7,481.7,546.2,498.2,526.1,498.2z"/>
<g>
	<polyline class="st1" points="62.2,145 297.8,335.5 538.5,145 	"/>
	<g>
		<g>
			<g>
				<g>
					<path class="st2" d="M533.5,139.9c0.8-0.5-0.2-1.2-0.3-1.5C532.2,139.5,533.7,140.1,533.5,139.9z"/>
					<polygon class="st2" points="523.6,151.3 523.5,150.7 522.5,153 					"/>
					<path class="st2" d="M512.7,159.9c2.3,0.8,3.7-3.4,6.1-4.3l0.6,0.1l-0.2-2C517.1,155.7,514.7,159,512.7,159.9z"/>
					<path class="st2" d="M504.1,160.9c0.9,0.4-0.8,1.5,1.5-0.9c-0.2,0-0.3,0-0.4,0C505,160.3,504.6,160.5,504.1,160.9z"/>
					<path class="st2" d="M505.2,160.1C506.3,159.1,504,160.2,505.2,160.1L505.2,160.1z"/>
					<path class="st2" d="M500.2,164.7l1.1-1.8c-0.6-0.1-2,0.9-1.7,0.2C498.2,164.6,498.8,164.7,500.2,164.7z"/>
					<path class="st2" d="M499.7,167l0.6-0.9C500,166.1,499.8,166.2,499.7,167z"/>
					<path class="st2" d="M501.6,164.3l-1.3,1.8c0.4,0.1,0.9,0.6,0.6-0.8C501.2,165.9,501.1,165.2,501.6,164.3z"/>
					<path class="st2" d="M502.7,163.8c1.1-0.3,2.4-1,1.3,0.8C506.7,162.1,505.4,161.3,502.7,163.8z"/>
					<path class="st2" d="M513.5,162l1.5-0.4l0.5-1.3C515.2,160.9,513,161.6,513.5,162z"/>
					<path class="st2" d="M490.1,171.3c0.2,0.4,1.2,0.5,1.7,0.9l0.8-1.3C491.8,171.1,490.6,171.7,490.1,171.3z"/>
					<path class="st2" d="M491.8,172.2l-1.2,1.9C492.2,173,492.2,172.5,491.8,172.2z"/>
					<polygon class="st2" points="500.9,169 502.6,165.6 500.4,169.5 					"/>
					<polygon class="st2" points="483.7,176.3 484,174.7 483.3,177.3 					"/>
					<path class="st2" d="M479.6,179.8c0.2-1.2-1.9-0.4-1.4-1.4c-1.1,1-1.6,2.4-2.1,3.6C476.8,181,477.8,180.2,479.6,179.8z"/>
					<path class="st2" d="M475.2,183.9c0.3-0.5,0.6-1.2,0.9-1.9C475.7,182.5,475.4,183.2,475.2,183.9z"/>
					<path class="st2" d="M487.6,176.2c-0.3-0.1-1-0.5-2.1,0l1.4,0.5C487.2,176.5,487.4,176.3,487.6,176.2z"/>
					<path class="st2" d="M487,176.7L487,176.7c-0.8,0.5-1.3,0.9-1.5,1.1C485.7,177.6,486.1,177.3,487,176.7z"/>
					<path class="st2" d="M487.8,176c-0.1,0-0.1,0.1-0.2,0.1C487.8,176.2,487.8,176.2,487.8,176z"/>
					<path class="st2" d="M495.8,171.6c-0.5,1.3-2.1,3.5,0.5,2.8C496.5,173.2,495,173.6,495.8,171.6z"/>
					<path class="st2" d="M489.6,176.6l2-1.2c-0.2-0.2-0.9-0.4-0.6-1L489.6,176.6z"/>
					<polygon class="st2" points="489,177.6 489.6,176.6 488.9,177 					"/>
					<path class="st2" d="M478.9,182.4c-0.4,1-1.2,1.7-2.1,2.6c1.2-0.6,2.3-1.3,3.3-2.1C480,182.4,480,181.5,478.9,182.4z"/>
					<path class="st2" d="M482.9,179.7c0,0.1-0.1,0.1-0.1,0.2C483,179.9,483.1,179.9,482.9,179.7z"/>
					<path class="st2" d="M467.5,192.4c0.1,0,0.2,0,0.3,0.1c0-0.1-0.1-0.1-0.1-0.2L467.5,192.4z"/>
					<path class="st2" d="M480.4,182.9c0.9-0.4,1.2-1,1.4-1.7c-0.5,0.6-1,1.1-1.7,1.6C480.1,183,480.2,183.1,480.4,182.9z"/>
					<path class="st2" d="M472.9,186.4c0.6-0.1,1.1-0.3,1.7-0.5C474,185.9,472.9,186.1,472.9,186.4z"/>
					<path class="st2" d="M482.3,179.8c0,0,0-0.1,0.1-0.1C482,179.7,482.1,179.8,482.3,179.8z"/>
					<path class="st2" d="M482.3,179.8c-0.3,0.5-0.4,0.9-0.5,1.4c0.4-0.4,0.8-0.9,1-1.3C482.6,179.9,482.5,179.9,482.3,179.8z"/>
					<path class="st2" d="M469.6,200.9c-0.6-1,0.8-3.4,3.3-3.8c1.2-2-2.3-4.1-5.1-4.6c0.3,0.4,0.6,0.8-0.8,2.7c1,0,4.8-1.9,4,0.1
						c-2,2.3-2.2,1.2-3.7,1.6c1.9,0.4-1.7,4,0.2,5.3l1.6-2.2C469.3,200.1,468.9,201.1,469.6,200.9z"/>
					<path class="st2" d="M471.2,189.9l0.6-0.7c-0.9,0.5-1.8,0.6-3.5,0.7c-0.8,1.4-0.8,1.9-0.7,2.3l3.7-2.7L471.2,189.9z"/>
					<path class="st2" d="M475,186.6c0.2,1.4-1.2,3.2,0.7,3.5c2.1-1.7,0.8-2,1.8-3.4c-3.2,3,0.5-1.3-2.4,0.1
						c0.5-0.7,1.1-1.2,1.6-1.7c-0.7,0.4-1.4,0.7-2.1,0.9c0.1,0,0.1,0,0.1,0l0,0l0,0c0.2,0,0.4,0,0.1,0.1c0,0,0,0.1-0.1,0.1
						C475,186.3,475,186.4,475,186.6c-1.2,0.6-0.4-0.1-0.1-0.5c0-0.1,0-0.1-0.1-0.2c0,0,0,0,0,0l-3,3.3
						C472.6,188.8,473.5,188,475,186.6z"/>
					<path class="st2" d="M496.2,178c-0.2,0-0.2-0.1-0.3-0.1C495.7,178.1,495.7,178.3,496.2,178z"/>
					<path class="st2" d="M494.3,178.5c0.1-0.3,0-0.9,0.9-1.4c0.9-0.3,0.4,0.5,0.7,0.8c0.3-0.6,1.1-2.1-0.8-1.3l-0.1,0.3
						c-1.6,0.8-4.4,0.9-4.3,0.6C491.8,178,492.7,178.3,494.3,178.5z"/>
					<path class="st2" d="M484.8,182.9l-2.5,2.7l2.1-0.3l-0.5-0.5C485.7,183.8,484.9,183.4,484.8,182.9z"/>
					<polygon class="st2" points="466.8,192.1 466.3,190.8 465.8,193.6 					"/>
					<polygon class="st2" points="463.1,195.2 462.6,194.2 462,195.5 					"/>
					<path class="st2" d="M254.6,309.6l-1-0.4C254,309.4,254.3,309.5,254.6,309.6z"/>
					<path class="st2" d="M260.6,314.5l0.5-0.3C260.6,314.2,260.3,314.3,260.6,314.5z"/>
					<path class="st2" d="M372.2,267.3c-1.9,0.1-4.3-0.1-3.3,0.8l1.2,0.7C370.8,268,371.5,267.6,372.2,267.3z"/>
					<path class="st2" d="M314.6,322.6c0.2,0,0.4,0,0.6,0c0-0.6,0-1.1,0.1-1.6C315.1,321.5,314.8,322,314.6,322.6z"/>
					<path class="st2" d="M317,327.4l-2.1,0.6C315.4,328,316.1,327.8,317,327.4z"/>
					<path class="st2" d="M220.9,284l-1.8,0.2C220.6,285.5,220.4,284.4,220.9,284z"/>
					<path class="st2" d="M425.5,225.6c-1.4,0.4-2.3,0.9-3.1,1.5C424.1,226.6,425.8,226.7,425.5,225.6z"/>
					<path class="st2" d="M265.4,301c-0.7-0.2-1-0.2-1.2,0C264.9,301.3,265.4,301.3,265.4,301z"/>
					<path class="st2" d="M419.3,229.5c0.3,0,0.5-0.1,0.7-0.2c0.6-0.8,1.3-1.5,2.3-2.2C421.1,227.4,419.8,228,419.3,229.5z"/>
					<path class="st2" d="M102.4,186.9c-0.1-0.1-0.1-0.2-0.2-0.3C102.1,186.6,102.2,186.8,102.4,186.9z"/>
					<path class="st2" d="M75.8,148.8c0.4,0.2,0.9,0.7,1.5,1.1C77,149.6,76.6,149.3,75.8,148.8z"/>
					<path class="st2" d="M447.9,206.6C448.6,205.9,447.9,206.3,447.9,206.6L447.9,206.6z"/>
					<path class="st2" d="M454.8,207.5c-0.1,0.2-0.1,0.5,0.1,0.7C454.8,207.9,454.8,207.7,454.8,207.5z"/>
					<path class="st2" d="M416.4,241.9C416.4,241.9,416.4,241.9,416.4,241.9C416.7,241.9,416.7,241.9,416.4,241.9z"/>
					<path class="st2" d="M449.4,206.1c-0.4,0.1-0.8,0.3-1.2,0.5C448.4,206.5,448.8,206.4,449.4,206.1z"/>
					<path class="st2" d="M448.9,205.7c0.3-0.2,0.5-0.3,0.8-0.4C449.6,205,449.5,205,448.9,205.7z"/>
					<path class="st2" d="M446.8,207.5c0.4-0.4,0.9-0.7,1.4-0.9c-0.2,0.1-0.3,0-0.3,0C447.7,206.8,447.4,207,446.8,207.5z"/>
					<path class="st2" d="M168.4,235.9c0-0.1-0.1-0.1-0.1-0.2C167.2,235.4,167.6,235.6,168.4,235.9z"/>
					<path class="st2" d="M359.9,293.9c0,0,0-0.1,0.1-0.1C360,293.8,359.9,293.8,359.9,293.9L359.9,293.9z"/>
					<path class="st2" d="M357.7,296.8c0.2-2.2,1-2.6,2.1-3l-3.2-2.1L357.7,296.8z"/>
					<path class="st2" d="M240,298.2l1.2,2.5c-3.6-0.5-4.9-2.4-4,0.4c2.8-2.9,7.9,5.9,10.7,3l0.8,1.7c-0.3-0.3-0.6-0.2-0.9-0.5
						c1.3,3.5,3.7-0.7,6.6,2.3c0.9,1.2,1.4,2.2,0.3,2l3.1,1.3c0.7,0.7,0.1,1-0.6,0.4l4,2.9l-0.1,0.1c0.9,0,2.8,0.2,3.7,0.4
						c0.6,1.2-0.8-0.1-0.8,0.5l2.7,1c0.2,1.5-2.2,0.9-3.6-0.5c-0.5,4.7,2.4,0.7,5.2,5.9l-2.3-1.2c-0.1,2.8,2,3.4,3.4,6.4
						c-0.1-1-2.3-6.4,0.6-5.3c0.5,0.8,1.2,1.6,3,2c-0.9,1.1,0.6,1.8,2.1,3l-1.3,1.4c2,0.9,2.5,0.1,4,0.2c1.7,1.6,1.2,3.1,0.9,4.4
						c2.8,2.6-0.6-3.4,3.1-0.9c1,1.3,2,2.1,3.3,2.8c0.3,0.2,0.6,0.3,1,0.5c0.3,0.2,0.6,0.3,1.3,0.6c1.1,0.6,2.2,1.2,3.4,1.8
						c1.1,1.3,1,1.6,0.5,1.6c-0.4,0-1.1-0.2-0.7,0.4c1,0.2,2,0.3,2.9,0.4c0.6,0.5,0.3,0.9,0.1,1c1.1,0.5,1.2,0,1.4-0.4
						c0.3-0.4,0.6-0.7,2,0.1c0.2-0.3,0.4-0.3,0.8,0c0.8-0.6,2.2-0.7,3.9-1.4c1.7-0.7,3.8-1.9,4.8-3.9c1.2-0.3,0.2,1.3,0.8,1.7
						c0.6-0.7,1-1.3,1.5-1.8c0.2-0.4,0.4-0.7,0.6-0.9c0.4-0.5,0.6-0.9,0.8-1.3c0.4-0.8,0.8-1.6,1.5-3.5l3.2-0.9
						c-2.6,0.3-1.4-2.8-0.3-5.4c-1,0-2-0.1-2.5,0l2.5-3.3c0.6-0.1,0.7,0.7,0.6,1.7c0.1-0.3,0.2-0.6,0.3-0.8c1.6-0.4,1.6,1,1.5,2.4
						c-0.6,0-1.2,0-1.9,0c-0.1,1.5,0,3.1,0.8,3.8c0.1-0.3,0.4-0.8,0.7-1.2c0,0.4,0,0.7,0.2,0.8c0.2,0.1,0.3-0.5,0.5-1.3l2,1.1
						l-0.3-0.8l4.9-2.2c1.7-4,2.3-8.4,6.5-12.8c-0.2,2.1,1.3,2.2,2.4,3.6c-2.5-0.5-3.1,3.5-5.8,5.1c1.4-0.8,1.7,0.1,1.5,0.5l3.3-4.8
						c0.8,1.2,1.6,0.1,3.1-0.3c-2.7-1.6,2-4.1,3.2-6.2c0.7,0.7,0.9,1.8-1.4,3.3c3.7-0.2,0.9-5.1,4.4-5.5c-0.5,0.4-0.9,0.5-0.8,1.1
						c0.7-1.7,4.1-3.5,3.9-2.3L344,305c3.7-2.5,10.6-8.4,9.6-10.8c0.2,0.2,1.4,2.7,1.5,3.3l1-11.5c0.8,2.1,6,4.4,3.9,7.7
						c1-0.4,2.3-1,3.6-2.9c-0.8,0.2-3.3-1.3-2.7-2.1c3.6,0.2,2.3-0.2,6.1-0.7c-1.1,0.3-2.3-3.1-0.9-4c0.1,0.6,2.2,2.5,1.9,3.2
						l1.3-5.2c-0.5,1.1,1.6,2.3,2.9,2.4c-0.7-0.2,2.9-2.2,3.6-3.2l-1.9,0.5c4.1-2.6,0.9-6.6,4.7-9.4c0,0.9,1.5,4.2,3.6,3
						c-0.2-2-1.2-9.4,1.3-13.1l1.2,0.3l1.9-2.9c0,3.2-1.1,10.9-2.3,14.5c1.9-0.5,1.1,0.6,3.2-1.2c1.3,0.1-0.3,2-0.9,2.5l5.3-3.4
						c-1.4-1.4,2.5-4.5,1.3-5.7l-4.1,5.8c-1.4-1.4-0.4-6.8,3.3-9.3c1.4-0.1,1.5,3.3,2,3.7c0-0.9,2.5-3.6,3.1-3.5l-0.8,2
						c2.4-1,1.6-4.6,5.1-4.9c0.9-0.5,4,0.1,3.4-0.9c-2.7-0.7-7.3-6-7.4-8c0.4-0.1,5.6-1.7,7.2-1.5c2.4,0.3,0.6,4.9,2.7,5.2
						c-0.3-0.5,0-1.6,0.2-2c1.1-0.3,0.7,1.6,2.4-0.1c-0.9-1.8,3.8-2.8-0.2-2c1.4-1.9,2.2-1.2,4.2-2.9c-1.5-0.5-0.8-4.9,0.6-6.8
						c0.2,0.5,1,0.7,1.4,0.8c3.8-2.8,6.3-3.6,9.8-6.3c0.6,0.1,2.6-0.7,2.5,0.5c0.3-0.7,0.3-1.6,1.3-2.4c3.1-0.3-2.2,2.1,0.7,2.5
						c-0.6-1,1.7-3.4,2.8-5.2c-1.6-1-3.7,2.5-4.8,4.3c-1.5-1.9-0.5-6,2.4-9.8c2.5-2.7,2.2,0.3,2.5-0.4c5.6-3.9,1.9-7,7.5-9.1
						c2.7-0.2,2,2.4,3.1,3c-2,2.3-4.2,2-5.7,3.3l2.4-1c-0.4,1-1.7,2.5-2.9,2.8c2.4-0.1,9.2-7,14.2-9.2c0.4-1,1.3-2.4,0.3-2.4
						l-1.2,1.2c-2,0,1.4-3.3-0.6-2.5c1.2-2.1,2.3-4.7,5.2-6.1l1.6,1c-0.4-0.4-2.3,0.4-2.6,1.4c0.5-1.4,5.3-1.1,5-3.8l-2.5,0.4
						c1.2-2.1,2.2-5.3,4.7-6.6c-2.1-0.6-0.4,0.6-3.2,0.2c3,1-5.7,4.4-1.8,4.8c-3.1-0.6-3.4,1.4-6.8,1.4c0.4,0.4,1.4,0.3-0.6,1.5
						c0,0.2,0,0.5-0.1,0.7c-0.1,0-0.1,0-0.2,0.1c0.1,0,0.1,0,0.1,0c0,0.1,0,0.2,0.1,0c0.6-0.1,1.1-0.2,1.5,0c-0.1,1.8-3,4.1-3.6,5.4
						c-1.3,0.6,0-0.9-1-0.9l-0.8,2c-1-0.9-4.3,0.6-2.2-2.1l-2.4,1.8c-1.8,0.5-3.9,1.8-4.7,3.1c-1.3,0.6-1.9,3.3-1.5,1.8l-3.1,3.5
						l-0.2-0.2c-3.7,2.7-6,7.5-11.6,8.9c-1,1.2-2,2.5-4.2,3.8l-1.1-0.6c-1.3,1.5-5.4,2.8-5.3,4.2c-3.6-1.1-7.9,5.4-11,7.2l0.8,1.2
						c-1.9,1.4-3.5,3.2-5.4,5.5l1,0.9c-1.3,2.4-5.7,3.3-8.8,6c-0.1-0.6,0.8-1.1,1.5-1.3c-5.6,0.7-6.7,8-11.4,9
						c-0.6,1.1-1.3,1.4-2.1,1.6c0.1-0.1,0.1-0.1,0.2-0.2c-0.1,0.1-0.2,0.2-0.4,0.3c-0.5,0.1-1.1,0.2-1.6,0.4c0.6,0,1.1-0.1,1.4-0.2
						c-0.6,0.5-1.5,1.5-2.3,2.5l-1.3-0.8c-0.1,0.1-0.1,0.1-0.2,0.2c-1.3,0.4-0.4,1.1,0.8,1.6c-0.4,0.6-0.6,1.1-0.8,1.7
						c-2.2-1.2-2.1,2.6-4.7,1.6c0.1,1.5-4.4,4.6-3.4,7c-0.2-0.2-0.6-0.1-0.1-0.6c-1.3,0.6-2.5,1.3-3.1,2.6l-1.6-1l-0.9,3.8
						c-2.1,0.3-3.1,0.3-2.5-1.9c-2.2,4.4-2.3,2.9-4,6.9l-0.6-1c-1,0.9-1.8,3.4-3,3.2c-3.7,0.1-11.9,9-19.3,12.2
						c3.3,1.7-3.8,1-2.4,3.3c-0.9-0.4-2,0-1.4-1.4c-2.6,3.1-5.5,2.7-6.2,6.1c-0.9-0.4-0.1-1.5-0.7-1.6c-0.1,0.3-0.5,1.3-1.2,1.2
						c-0.6-0.1,0-0.9,0.3-1.6c-3.1,2.6-1.9,4.8-0.6,6.8c-2.3,0.4-3,1.2-3.2,3.3c-1-0.2-2.5,0-0.7-1.8c-1.2,0.8-7.5,4.5-6.4,6
						c-0.6-0.1-1.6,1.1-1.8,1.5c-1.8,1.3-1.9,1.1-3.4,2.6l0.5,0c-0.1,2.3-1,2.2-1.8,2.5c-0.3-0.4-0.6-0.7-1-0.9l0.1-0.2
						c-0.8-1.1-1.2-1.7-1.5-1.9c-0.3-0.3-0.5-0.3-0.7-0.4c-0.2-0.1-0.4-0.1-0.7-0.4c-0.1-0.2-0.3-0.4-0.5-0.7
						c-0.1-0.1-0.2-0.3-0.3-0.5l-0.1-0.1c0-0.1-0.1-0.1-0.1-0.2c-0.1-0.1-0.2-0.3-0.3-0.4l-0.6,1.3c-2.3,2-2.8-4.5-6.1-5.7l0.4,1.4
						c-2-0.3-1.3-6.4-2.5-7.8c-0.1-0.5,0.7,0.1,1.3,0.3c-2.6-4.4-1.6,1-4.6-0.8c0.1-1.2,2.2-1.4,0.5-3.1c-0.4-1.4-7.4-1.8-8.7-5.3
						c0.1,1,0.1,2.1-1.5,1.5c-2.1-1.4-3.5-6.5-6.7-6.1c-0.1-0.4-0.1-0.6,0-0.8c-1.9-0.7-5.5-3.1-7.2-2.8c1.7-4.9-10.8-5.7-7.9-9.1
						l-4.7-3.5l0.4-0.3c-2.7-2.6-4.5-2.6-6.2-2.6c-0.5-0.8,0.3-0.7,0.5-0.8c-3.7-4.2-4.3-4.4-9.3-5.5l0.5-1.4
						c-1.5-0.1-4.8-6.8-10-8.9c0.1-0.1,0.4-0.2,0.9-0.1c-5.8-2.5-8.8-12.3-13.8-9.6l-3.9-1.5c3.8,3.6-2,1.3-0.9,3.3
						c-1.8-1-3.1-4.6-1-3.2l0.1,0.5c2.4-1.6-4.4-4.8-3.1-6.2c-8-6.3-14.8-13.8-22.2-19.9l-0.5,2.4l-2.5-2.2c-0.4-0.9,0.1-2,1.9-0.5
						c-0.2-1.7-3.7-1.7-4.1-1.4c-3.1-3.6,3-0.8,1.9-1.7l-1.6-1.1l0.2,0.5c-1.8-0.3-2.5,0.3-4.6-1.6c-1.1-1.5,0.1-1.6-0.4-2.1
						c0.1-0.1,0-0.3-0.8-0.7l-3.2-2.8l0.2,2.4c-2-0.5-3-2.6-2.7,0.2c-0.4-4.1-11.5-10.7-12.3-12.5c-2.8-0.7-4.8-2.3-7.2-4.4
						c0.4,0.8-0.4,2.5-2.4,0.6c3.2-2.4-2.9-4.5-2.8-8.1c0.4,2.7-6.4-4.6-5.6-0.5c-1.6-1.7,0.8-1.2,0-3c-5.2-2.3-8.7-8.3-14.3-12.2
						c-0.4,0.3,0,1.7-1.6,1.3l-1.2-4.2c-1.2-0.6-2.8,1.5-3.6-1.4c0,0.6,0,1.4-0.8,0.9c-8.7-10.3-22.3-15.4-29.8-27.5
						c0.8,1.9-0.2,1.2-1.3,0.4c0.6,0.8-0.8,1-1.1,1.6l-3.2-5c-2,0.9-4.8-3.7-6.4-2.6l1.6,0.9c-3.2,0.2-0.5,5.9-2.5,7.8
						c3.6-0.3,3.1,7.3,8.8,7.2c0.4,1-1.2,0.2-1.2,1c1.6-0.2,2.8,0.4,4.4,2.4l-0.4,0.1c5.6,4.1,7.2,6.9,12.7,12.4l0.4-1.4
						c1.2,1.2,1.2,1.8,1.6,2.5c2.8-0.4-3.6-3.1-0.8-3.8c0,3.6,9.2,7.5,8.3,10.9c2,1.6,0.4-1.7,2.4-0.1l0,1.1l1.2-0.5
						c1.2,1.2,1.2,2.6,0.8,3.2c-0.3-0.3-1-0.6-1.4-0.8c1.1,2.2,5,3.6,5.4,4.3l-1.6-2c6,3.8,11.9,10.1,18.3,13l0-0.8
						c4.8,2.3,2.8,3.2,7.6,6.3l-0.3,0c1.3,0.2,2.7,0.9,3.9,2c-1.6-0.3,1.2,2.9-0.8,2.3c5.2,2.5,2.8,1,7.2,1.4l0,1.4
						c1.6,0,2-0.3,4.4,1.3c-2.4-0.7,0.4,2.4-2.4,1.7c3.2,5.6,8.4,3.7,8.4,8.1c4-0.6-3-4.5-1.4-4.1c-0.4-1.6,3.2-0.3,4.4,1.1
						c1.4,1.3,0.1,5,3.9,8c-0.4-0.3-0.5-0.2-0.9-0.5c0.9,1.7,3.4,1.4,4.3,3.8c2.1-0.6,2.2,1.9,3.9,0.3l-3.8-2.4
						c2.3,1.1,5.8,0.5,8.2,4.1c-0.5,0.2-1.9-0.1-2.7-0.4c0.5,1.3,2.1,1.1,2.6,2.4c-1.7,1.6-4.5-3-7.7-3.3c0.4,1.6,5,1.9,2.4,3
						c3.5-1.3,3.4,3.3,7.5,3.4l-1,0.9c0.5,0.2,1.8,0.3,2.5,0.9l-2.5,0.3c3,0.5,3.1,4.2,5.6,5.2c-4.1-3.3,0.1-2-1-4.2
						c6.2,2.7,0.6,5.2,6.7,9.3c-0.9-0.5-2.4-3-0.8-2.5c0.9,1.1,2,2.7,2.2,3.8c3.9,2.8,0.3-1.6,2.5-0.9c0.2,2.4,2.3,1,4.3,1.9
						l-0.9,1.1c3.7,4.2,3-1.4,6.2,2.6l-2.9,0.2l2.3,1.2l-1.4,0.9c2.9,0.8,3.4,1.6,5.3,3.7c0.1-1.2,1.9-1.8,3.8-0.3
						c0.8,1.7-1.6,0.5,1.2,2.5c-1.2,0.2-2.5,0.5-2.9-1.4c-0.4,0.3-1.2,0.2-1.6,0.5c0.8,1.9,3.4,3,4.3,3.8c-0.3-0.3-0.7-0.8-0.8-1.1
						l5.1,1.6c0.3,0.9-0.5,0.8-1.2,0.8c0.9,0.5,1.8,0.5,3.1,1.3c-1,0.6-1.7,1.6-3.7,0.7l4.5,2c-0.1,0.6,1,2.6,0.3,2.5
						c1.6,2.2,6.5,2.4,8.6,5.3c0.3-0.1,0.7,0,1.4,0.3c2.4,2.3,3.8,5.2,7.8,6.4l0.4,3c2.7,1.6-0.7-3.9,3.7-1.3
						c3.2,1.8-0.1,2.2,0.6,3.5c2,0.3,5.8,0.6,7.3,4C241.3,299.5,240.9,298.7,240,298.2z M269.9,321.3c-0.8-0.2-2.5-0.4-2.4-1.4
						C269.2,319.1,269.2,320.1,269.9,321.3z M320.6,321.3c-0.1,0.7-0.9,1-2,1.2C319.1,322,319.7,321.5,320.6,321.3z M440,214.3
						c0,0,0,0.1,0,0.1C438.4,215,438.9,214.8,440,214.3z M443,212.7c0.1-0.4,0-0.5-0.2-0.6c0,0.4-0.5,0.9-1.3,1.4
						C441.9,213.6,442.4,213.5,443,212.7z M166,221.7l0.3,0.7C164.9,221.8,165.5,221.8,166,221.7z"/>
					<path class="st2" d="M316.7,326.8c-0.3-0.1-0.5-0.2-0.7-0.4C315.9,326.8,316.1,327,316.7,326.8z"/>
					<path class="st2" d="M221.2,284C221.2,284,221.2,284,221.2,284c-0.2-0.1-0.3,0-0.3,0L221.2,284z"/>
					<path class="st2" d="M409.3,254.6c-0.7,0.3-1.1,0.3-1.5,0.3C407.9,255.2,408.4,255.2,409.3,254.6z"/>
					<path class="st2" d="M455.6,199.6l-1.5,1.6c0.8-0.7,1.3-0.7,1.8-0.9C455.7,200.2,455.1,200.1,455.6,199.6z"/>
					<path class="st2" d="M475.8,194.8c0.1-0.3,0.5-0.4,0.7-0.8l-0.5-0.5C475,194.4,474.6,195.4,475.8,194.8z"/>
					<path class="st2" d="M460.1,202c0.9,0.8,1.7-0.3,2.7-1.5c-0.1,0.1-0.1,0.1-0.2,0.2C462,199.2,461,200.6,460.1,202z"/>
					<path class="st2" d="M463.1,200.3c0.3-0.3,0.7-0.7,1.1-0.9C463.9,198.8,463.7,199.7,463.1,200.3z"/>
					<path class="st2" d="M445.9,209.4c0.8-0.2-0.6-1.5,0-1.3C445.6,206.3,443.3,212.4,445.9,209.4z"/>
					<polygon class="st2" points="463.5,204.3 462.2,203.5 462.2,205 					"/>
					<path class="st2" d="M453.4,211l2.2-1.2c-0.2-0.2,0-0.5,0.2-0.8C454.6,209.9,453.1,210.7,453.4,211z"/>
					<path class="st2" d="M455.8,209c0.6-0.5,1.2-0.9,1.4-1.4C456.8,207.8,456.2,208.4,455.8,209z"/>
					<polygon class="st2" points="461.2,206.8 460.4,207 459,207.9 					"/>
					<path class="st2" d="M432.8,227l-1.8,2c0.1,0.6,0.9,0.4,1.5-0.4C432.7,227.9,433.4,227.1,432.8,227z"/>
					<path class="st2" d="M441.5,225.1c-0.8,0.2-1,0-1.6-0.1l1.1,1.5L441.5,225.1z"/>
					<path class="st2" d="M435.7,230.3c0.1,0.6-2.1,3.5,0.4,1.3C436.1,231.1,437.9,229.1,435.7,230.3z"/>
					<polygon class="st2" points="403,253.3 403.5,252.8 401.6,250.6 					"/>
					<path class="st2" d="M379.8,280.7c2.9-1.4-0.6-1.9,2.2-3c0.1-1-2.3,0.9-2.1-0.1C378.9,279.4,377.9,279.7,379.8,280.7z"/>
					<path class="st2" d="M379.9,277.7c0.2-0.3,0.3-0.6,0.5-1C380.1,277.2,380,277.5,379.9,277.7z"/>
					<polygon class="st2" points="71,142.9 69.8,141.2 70.2,142.8 					"/>
					<path class="st2" d="M66.6,142.2l0.8-1.8l-2,0.6C65.8,141.2,66.6,141.7,66.6,142.2z"/>
					<path class="st2" d="M271.9,327.8l0.4-0.3c0.1-0.6-0.3-0.9-1-1.6L271.9,327.8z"/>
					<polygon class="st2" points="251.5,309.4 251.8,309.7 252.2,307.8 					"/>
					<path class="st2" d="M232.2,296.6c0.7,0.6,1.8,1,2.5,1.7C232.9,297.3,233.3,294.8,232.2,296.6z"/>
				</g>
			</g>
		</g>
	</g>
</g>
</svg>
