<?xml version="1.0" encoding="utf-8"?>
<!-- Generator: Adobe Illustrator 22.0.1, SVG Export Plug-In . SVG Version: 6.00 Build 0)  -->
<svg version="1.1" id="Laag_1" xmlns="http://www.w3.org/2000/svg" xmlns:xlink="http://www.w3.org/1999/xlink" x="0px" y="0px"
	 viewBox="0 0 595.3 841.9" style="enable-background:new 0 0 595.3 841.9;" xml:space="preserve">
<style type="text/css">
	.st0{fill:#010202;stroke:#F5CF00;stroke-width:4.3938;stroke-miterlimit:10;}
	.st1{fill:#F5CF00;}
	.st2{fill:#010202;stroke:#F5CF00;stroke-width:5.4775;stroke-miterlimit:10;}
	.st3{fill:#010202;stroke:#F5CF00;stroke-width:7.0104;stroke-miterlimit:10;}
</style>
<g>
	<path class="st0" d="M196.9,318l-31.4-21.8l-42.1-29.3c-5.2-3.6-12.5-2-15.7,3.5l-25.8,44.4l-19.2,33c-1.9,3.3-1.9,6.8-0.6,9.7
		c0,0.7,0.1,1.3,0.2,2l30.3,136.6c1.3,5.9,7.2,9.6,13,8.3l118.6-26.3c5.9-1.3,9.6-7.2,8.3-13l-30.3-136.6c-0.1-0.7-0.4-1.3-0.6-1.9
		C201.5,323.3,200,320.1,196.9,318z"/>
	<circle class="st1" cx="124.6" cy="307.9" r="17.1"/>
	<path class="st2" d="M274.2,280.8L228.9,266l-60.8-19.9c-7.6-2.5-15.6,2-17.5,9.8l-14.9,62.2l-11.1,46.3c-1.1,4.6,0.2,8.8,2.7,11.8
		c0.3,0.8,0.6,1.6,1,2.3l85.2,152.3c3.6,6.5,12,8.9,18.5,5.2l132.2-73.9c6.5-3.6,8.9-12,5.2-18.5l-85.2-152.3
		c-0.4-0.7-0.9-1.4-1.4-2.1C281.6,285.6,278.7,282.3,274.2,280.8z"/>
	<circle class="st1" cx="184.2" cy="294.7" r="21.3"/>
	<path class="st3" d="M355,205.1l-60.9-2.5l-81.8-3.3c-10.2-0.4-18.5,7.9-18.1,18.1l3.3,81.8l2.5,61c0.2,6,3.3,10.7,7.5,13.6
		c0.6,0.9,1.3,1.7,2,2.5l157.9,157.9c6.8,6.8,17.8,6.8,24.6,0L529,397.2c6.8-6.8,6.8-17.8,0-24.6L371.1,214.7
		c-0.8-0.8-1.6-1.4-2.5-2C365.8,208.4,361,205.4,355,205.1z"/>
	<circle class="st1" cx="249.1" cy="253.6" r="27.3"/>
</g>
</svg>
